<svg width="527" height="527" viewBox="0 0 527 527" fill="none" xmlns="http://www.w3.org/2000/svg">
<path d="M486.02 275.094C480.803 319.362 460.598 370.797 420.24 394.428C359.277 430.148 364.378 485.072 245.371 508.966C228.016 512.535 210.324 514.206 192.608 513.952C183.94 513.797 175.29 513.093 166.711 511.844C91.0656 500.829 40.1679 448.256 21.5016 384.794C-3.0777 301.328 45.9965 246.72 78.5124 213.762C111.028 180.803 134.912 78.2595 251.664 53.8594C269.486 50.0687 287.685 48.3428 305.902 48.7159C347.462 49.7699 392.784 63.377 424.151 91.8667C426.512 93.9747 428.806 96.1881 431.033 98.5069C474.627 143.26 493.156 214.805 486.02 275.094Z" fill="#38B6FF"/>
<path opacity="0.7" d="M486.02 275.094C480.803 319.362 460.598 370.797 420.24 394.428C359.277 430.148 364.378 485.072 245.371 508.966C228.016 512.535 210.324 514.206 192.608 513.952C183.94 513.797 175.29 513.093 166.711 511.844C91.0656 500.829 40.1679 448.256 21.5016 384.794C-3.0777 301.328 45.9965 246.72 78.5124 213.762C111.028 180.803 134.912 78.2595 251.664 53.8594C269.486 50.0687 287.685 48.3428 305.902 48.7159C347.462 49.7699 392.784 63.377 424.151 91.8667C426.512 93.9747 428.806 96.1881 431.033 98.5069C474.627 143.26 493.156 214.805 486.02 275.094Z" fill="white"/>
<path d="M514.984 468.092H14.9668" stroke="#263238" stroke-linecap="round" stroke-linejoin="round"/>
<g opacity="0.3">
<path d="M29.8703 347.694C33.9177 349.454 43.8253 349.232 43.8253 349.232C43.8253 349.232 41.7173 342.75 41.517 342.36C39.3458 337.818 32.4737 330.313 26.8875 331.072C25.9673 331.223 25.0889 331.565 24.3089 332.076C23.529 332.587 22.8649 333.256 22.3594 334.039C21.8539 334.823 21.5182 335.704 21.3741 336.625C21.23 337.546 21.2806 338.487 21.5227 339.388C22.4607 343.309 26.4238 346.186 29.8703 347.694Z" fill="black"/>
<path d="M33.2958 376.362C37.5118 376.974 46.3233 374.412 46.9978 374.254C48.4613 379.295 50.2606 384.231 52.3838 389.031C53.6064 391.846 54.9134 394.649 56.2625 397.463C55.4615 396.283 54.7237 395.239 54.6077 395.102C51.3192 391.287 42.7081 385.869 37.5224 388.072C36.6704 388.463 35.9101 389.028 35.2909 389.732C34.6716 390.435 34.2073 391.261 33.928 392.155C33.6487 393.05 33.5607 393.993 33.6697 394.924C33.7786 395.855 34.0822 396.752 34.5606 397.558C36.4789 401.047 41.0744 402.765 44.795 403.313C48.5156 403.861 56.1466 401.827 58.1386 401.268C58.6762 402.322 59.1926 403.376 59.7196 404.43C62.2808 409.521 64.8526 414.591 67.2241 419.65C68.0673 421.421 68.8262 423.213 69.5956 424.994C68.8789 423.94 68.2676 423.065 68.1516 422.886C64.8631 419.081 56.252 413.663 51.0663 415.866C50.2132 416.255 49.4517 416.82 48.8315 417.523C48.2113 418.227 47.7463 419.053 47.4669 419.948C47.1874 420.843 47.0998 421.787 47.2096 422.718C47.3195 423.649 47.6244 424.547 48.1045 425.352C50.0228 428.852 54.6183 430.57 58.3389 431.118C62.0595 431.666 68.9527 429.821 71.3242 429.168C72.062 431.012 72.7892 432.867 73.4322 434.691C73.8327 435.945 74.307 437.125 74.6337 438.411C74.9605 439.697 75.3294 440.92 75.6877 442.164C76.2674 444.567 76.8787 447.054 77.3847 449.415C77.743 451.059 78.0592 452.63 78.4387 454.221C77.6271 452.43 75.9618 448.951 75.7931 448.709C73.116 444.44 65.4218 437.779 59.9831 439.17C59.0811 439.426 58.243 439.869 57.5236 440.47C56.8042 441.071 56.2195 441.817 55.8078 442.659C55.3961 443.502 55.1665 444.421 55.1341 445.358C55.1017 446.295 55.2671 447.229 55.6196 448.098C56.9898 451.839 61.269 454.242 64.8631 455.339C68.8262 456.551 77.5955 455.444 78.6916 455.339C79.2081 457.963 79.7456 460.514 80.1145 462.927C80.4307 464.719 80.7258 466.437 80.9893 468.092H84.4992C84.1619 466.247 83.8035 464.329 83.4452 462.316C82.9182 459.649 82.3068 456.814 81.6534 453.884C84.2931 452.826 86.8691 451.615 89.3686 450.258C92.2566 453.42 99.6557 457.035 100.604 457.499C99.5503 459.976 98.6017 462.379 97.6109 464.624C97.0945 465.815 96.5569 466.943 96.0931 468.06H99.8032L100.699 465.952C101.753 463.444 102.807 460.746 103.861 457.963C104.915 458.184 113.6 459.945 117.647 459.017C121.315 458.184 125.763 456.108 127.407 452.482C127.823 451.642 128.056 450.724 128.093 449.788C128.13 448.851 127.969 447.918 127.621 447.048C127.273 446.178 126.746 445.391 126.073 444.738C125.401 444.085 124.599 443.582 123.718 443.26C118.375 441.457 110.206 447.528 107.223 451.586C107.044 451.818 105.421 454.632 104.42 456.414C104.852 455.275 105.273 454.179 105.695 452.999C106.549 450.669 107.339 448.329 108.183 445.8C108.551 444.577 108.931 443.323 109.3 442.069C109.669 440.814 109.964 439.476 110.354 438.169C111.081 435.112 111.661 431.982 112.188 428.82C114.222 429.558 121.505 432.087 125.278 431.824C129.052 431.56 133.71 430.18 135.903 426.849C136.441 426.082 136.811 425.21 136.99 424.29C137.168 423.37 137.151 422.423 136.94 421.51C136.728 420.597 136.326 419.739 135.761 418.992C135.195 418.245 134.479 417.625 133.658 417.173C128.651 414.58 119.661 419.355 116.088 422.907C115.866 423.128 113.6 425.964 112.377 427.545C112.673 425.637 112.978 423.74 113.221 421.8C113.916 416.214 114.443 410.522 115.002 404.862C115.171 403.123 115.36 401.395 115.539 399.666C116.256 399.94 124.846 403.134 129.062 402.828C132.815 402.565 137.494 401.184 139.697 397.853C140.235 397.086 140.606 396.214 140.784 395.294C140.963 394.375 140.946 393.427 140.734 392.515C140.522 391.602 140.12 390.744 139.555 389.996C138.99 389.249 138.273 388.63 137.452 388.178C132.446 385.585 123.455 390.349 119.892 393.901C119.618 394.175 116.351 398.264 115.571 399.34C115.972 395.535 116.414 391.74 116.994 388.02C117.678 382.991 118.692 378.012 120.029 373.116C120.367 373.242 129.315 376.615 133.637 376.278C137.389 376.014 142.069 374.634 144.271 371.303C144.81 370.536 145.18 369.664 145.359 368.744C145.537 367.824 145.52 366.877 145.308 365.964C145.097 365.051 144.695 364.193 144.129 363.446C143.564 362.699 142.847 362.079 142.026 361.627C137.009 359.035 128.029 363.809 124.456 367.361C124.182 367.635 120.662 372.03 120.082 372.874C120.167 372.6 120.219 372.294 120.314 372.009C121.854 367.146 123.825 362.429 126.206 357.917C127.492 355.409 128.862 353.079 130.243 350.845C131.845 351.646 139.202 355.219 143.123 355.377C146.875 355.525 151.713 354.671 154.232 351.593C154.852 350.89 155.316 350.065 155.596 349.17C155.875 348.276 155.963 347.333 155.854 346.402C155.745 345.471 155.44 344.574 154.961 343.769C154.482 342.963 153.838 342.268 153.072 341.728C148.372 338.566 138.917 342.36 134.975 345.501C134.764 345.67 132.783 347.609 131.349 349.106C131.992 348.052 132.635 347.061 133.257 346.123C135.618 342.561 138 339.462 140.129 336.721C141.352 335.172 142.49 333.802 143.565 332.505C145.547 332.505 153.526 332.231 157.014 330.587C160.503 328.943 164.319 326.013 165.141 322.155C165.365 321.246 165.396 320.301 165.231 319.379C165.066 318.458 164.709 317.581 164.183 316.807C163.657 316.033 162.974 315.377 162.179 314.884C161.383 314.391 160.493 314.071 159.565 313.944C153.958 313.333 147.286 321.017 145.241 325.623C145.062 326.023 143.007 332.558 143.133 332.558H143.249C142.195 333.76 141.067 335.067 139.866 336.511C137.673 339.209 135.218 342.276 132.772 345.786C130.088 349.546 127.624 353.46 125.394 357.506C122.875 362.026 120.758 366.759 119.07 371.651C119.07 371.651 119.07 371.767 119.018 371.83C119.018 370.175 119.018 365.506 118.933 365.2C118.333 360.257 114.138 350.982 108.562 349.928C107.633 349.783 106.683 349.836 105.776 350.084C104.869 350.332 104.024 350.769 103.298 351.366C102.571 351.963 101.979 352.707 101.56 353.549C101.142 354.391 100.906 355.312 100.868 356.252C100.541 360.215 103.418 364.189 106.222 366.697C109.384 369.522 118.174 372.262 118.87 372.473C117.291 377.493 116.052 382.612 115.16 387.798C114.622 390.813 114.169 393.869 113.758 396.936C113.758 395.514 113.758 394.228 113.684 394.048C113.041 389.052 108.857 379.788 103.303 378.765C102.378 378.621 101.432 378.673 100.529 378.917C99.625 379.162 98.783 379.594 98.0572 380.186C97.3315 380.777 96.7384 381.515 96.3165 382.351C95.8946 383.186 95.6533 384.102 95.6083 385.037C95.2816 389.01 98.159 392.984 100.963 395.482C103.766 397.98 111.25 400.509 113.231 401.142C113.084 402.322 112.926 403.503 112.789 404.683C112.114 410.343 111.46 415.993 110.681 421.547C110.406 423.497 110.048 425.394 109.711 427.313C109.711 426.037 109.711 424.973 109.637 424.804C108.994 419.808 104.799 410.544 99.2551 409.521C98.3299 409.375 97.3842 409.425 96.4798 409.669C95.5754 409.913 94.7327 410.345 94.0066 410.937C93.2805 411.529 92.6873 412.267 92.2659 413.104C91.8445 413.941 91.6043 414.857 91.561 415.792C91.2342 419.766 94.1116 423.74 96.9153 426.238C99.7189 428.736 106.486 431.023 108.825 431.782C108.414 433.732 108.003 435.671 107.519 437.536C107.16 438.812 106.897 440.056 106.465 441.299L105.273 445.009C104.42 447.339 103.566 449.752 102.681 451.997C102.08 453.568 101.469 455.054 100.868 456.551C101.173 454.622 101.69 450.817 101.7 450.501C101.645 446.056 100.447 441.701 98.2222 437.853C98.2432 437.359 98.2114 436.864 98.1274 436.377C98.0106 435.448 97.6994 434.554 97.2141 433.752C96.7289 432.951 96.0804 432.261 95.3108 431.727C94.5413 431.194 93.668 430.828 92.7477 430.654C91.8274 430.48 90.8808 430.501 89.9694 430.717C84.5202 432.172 81.0631 441.742 80.8102 446.77C80.8102 447.065 80.9893 450.3 81.1369 452.345C80.8629 451.154 80.6099 450.005 80.3148 448.783C79.7456 446.369 79.1027 443.987 78.4281 441.405C78.0487 440.171 77.6798 438.928 77.2898 437.673C76.8998 436.419 76.415 435.144 75.9723 433.858C74.9183 430.917 73.664 427.977 72.3571 425.047C74.4651 424.541 81.9274 422.643 84.9313 420.335C87.9352 418.027 91.0761 414.306 91.0445 410.322C91.0714 409.385 90.9003 408.453 90.5424 407.587C90.1844 406.721 89.6477 405.94 88.9672 405.295C88.2868 404.65 87.4779 404.157 86.5936 403.846C85.7092 403.535 84.7693 403.415 83.8351 403.492C78.2279 404.093 73.3689 413.031 72.3465 417.964C72.2833 418.269 71.9566 421.895 71.809 423.887C71.008 422.127 70.2175 420.377 69.3426 418.617C66.8447 413.569 64.1464 408.541 61.4798 403.503C60.6717 401.964 59.8672 400.422 59.0661 398.876C59.825 398.707 68.7419 396.641 72.1041 394.059C75.0869 391.772 78.2489 388.02 78.2173 384.046C78.2439 383.11 78.0731 382.178 77.7159 381.312C77.3586 380.446 76.8231 379.665 76.144 379.02C75.4649 378.374 74.6575 377.879 73.7744 377.567C72.8913 377.254 71.9523 377.131 71.0185 377.206C65.4007 377.817 60.5417 386.755 59.5194 391.687C59.4456 392.056 58.9713 397.263 58.9186 398.602C57.1584 395.197 55.4298 391.793 53.8594 388.367C51.7175 383.76 49.8796 379.017 48.3575 374.17C48.7053 374.096 58.0227 371.978 61.4693 369.332C64.4521 367.045 67.6141 363.303 67.5825 359.319C67.6094 358.382 67.4383 357.45 67.0803 356.584C66.7224 355.718 66.1856 354.937 65.5052 354.292C64.8247 353.647 64.0159 353.153 63.1315 352.843C62.2472 352.532 61.3072 352.412 60.3731 352.489C54.7658 353.09 49.9069 362.028 48.8845 366.961C48.8107 367.351 48.3048 372.958 48.2837 373.97C48.1994 373.696 48.0729 373.411 47.9886 373.127C46.5978 368.218 45.6454 363.195 45.1428 358.118C44.8266 355.314 44.679 352.626 44.6053 350.002C46.376 349.78 54.4812 348.705 57.8435 346.671C61.2058 344.637 64.6207 341.338 65.0318 337.385C65.1594 336.457 65.0901 335.512 64.8286 334.611C64.567 333.711 64.119 332.876 63.5136 332.16C62.9083 331.445 62.1591 330.864 61.3148 330.457C60.4704 330.05 59.5499 329.825 58.6129 329.797C52.974 329.797 47.1559 338.134 45.6066 342.919C45.5222 343.182 44.9531 345.923 44.5526 347.936C44.5526 346.745 44.4893 345.522 44.4893 344.384C44.4893 340.168 44.7739 336.215 45.0374 332.79C45.206 330.83 45.3958 329.059 45.596 327.393C47.2192 326.276 53.7434 321.67 55.7566 318.382C57.7697 315.093 59.3086 310.529 57.8646 306.788C57.5494 305.905 57.0522 305.099 56.4053 304.422C55.7584 303.744 54.9762 303.21 54.1096 302.854C53.2429 302.498 52.311 302.329 51.3746 302.356C50.4381 302.384 49.5179 302.608 48.6737 303.014C43.6672 305.597 42.3497 315.662 43.1718 320.658C43.2456 321.08 45.1428 327.667 45.2798 327.615L45.3747 327.541C45.1533 329.133 44.9425 330.84 44.7423 332.716C44.3945 336.173 44.0361 340.094 43.9412 344.363C43.7779 348.975 43.887 353.592 44.268 358.191C44.6672 363.345 45.5243 368.452 46.8292 373.453C46.8339 373.513 46.8339 373.573 46.8292 373.632C45.9438 372.241 43.3299 368.426 43.098 368.152C39.8096 364.347 31.1984 358.919 26.0127 361.121C25.1607 361.512 24.4005 362.077 23.7812 362.781C23.162 363.484 22.6976 364.31 22.4183 365.205C22.139 366.099 22.051 367.042 22.16 367.973C22.269 368.904 22.5725 369.802 23.051 370.607C24.9798 374.096 29.5752 375.825 33.2958 376.362Z" fill="black"/>
<path d="M130.011 349.865C130.095 349.917 131.813 343.288 131.876 342.856C132.562 337.87 130.981 327.826 125.9 325.37C125.045 324.985 124.119 324.784 123.181 324.782C122.243 324.779 121.316 324.974 120.458 325.354C119.601 325.734 118.834 326.29 118.206 326.987C117.578 327.683 117.104 328.504 116.815 329.396C115.455 333.127 117.184 337.723 119.228 340.885C121.621 344.584 130 349.865 130.011 349.865Z" fill="black"/>
</g>
<g opacity="0.3">
<path d="M228.307 67.9935C232.354 69.7643 242.251 69.5429 242.262 69.5429C242.272 69.5429 240.154 63.0608 239.943 62.6603C237.772 58.1176 230.9 50.6131 225.314 51.372C224.389 51.5245 223.507 51.8696 222.725 52.3851C221.943 52.9005 221.277 53.5747 220.773 54.3638C220.268 55.153 219.934 56.0395 219.794 56.9658C219.654 57.8921 219.71 58.8375 219.959 59.7407C220.887 63.6089 224.86 66.4863 228.307 67.9935Z" fill="black"/>
<path d="M231.722 96.6729C235.938 97.2842 244.76 94.723 245.424 94.5649C246.908 99.604 248.721 104.54 250.852 109.342C252.064 112.156 253.371 114.949 254.731 117.774C253.919 116.593 253.192 115.55 253.076 115.413C249.777 111.608 241.176 106.18 235.98 108.383C235.128 108.773 234.368 109.339 233.749 110.042C233.129 110.746 232.665 111.571 232.386 112.466C232.106 113.361 232.018 114.304 232.127 115.235C232.236 116.165 232.54 117.063 233.018 117.869C234.937 121.358 239.532 123.086 243.253 123.624C246.973 124.161 254.604 122.148 256.607 121.579C257.134 122.633 257.661 123.687 258.188 124.741C260.749 129.832 263.321 134.901 265.692 139.961C266.525 141.742 267.284 143.523 268.053 145.304C267.337 144.25 266.725 143.386 266.62 143.26C263.321 139.444 254.72 134.027 249.524 136.229C248.672 136.62 247.912 137.185 247.292 137.889C246.673 138.592 246.209 139.418 245.93 140.313C245.65 141.207 245.562 142.151 245.671 143.081C245.78 144.012 246.084 144.91 246.562 145.715C248.491 149.204 253.076 150.933 256.797 151.47C260.517 152.008 267.41 150.184 269.792 149.52C270.52 151.375 271.257 153.22 271.9 155.043C272.301 156.298 272.765 157.478 273.091 158.764C273.418 160.05 273.798 161.283 274.145 162.516C274.725 164.93 275.336 167.407 275.832 169.778C276.201 171.423 276.517 172.993 276.886 174.574C276.064 172.793 274.409 169.304 274.23 169.062C271.553 164.846 263.869 158.132 258.42 159.576C257.52 159.834 256.684 160.278 255.966 160.88C255.249 161.482 254.666 162.228 254.256 163.07C253.845 163.912 253.616 164.831 253.584 165.766C253.551 166.702 253.716 167.635 254.067 168.503C255.426 172.245 259.706 174.648 263.3 175.744C267.263 176.956 276.032 175.849 277.128 175.744C277.655 178.368 278.182 180.919 278.562 183.333C278.878 185.125 279.162 186.843 279.426 188.497H282.936C282.613 186.663 282.261 184.738 281.882 182.721C281.365 180.065 280.754 177.23 280.1 174.289C282.738 173.233 285.31 172.022 287.805 170.664C290.693 173.826 298.092 177.451 299.051 177.915C297.997 180.392 297.038 182.785 296.058 185.03C295.542 186.221 295.004 187.348 294.54 188.466H298.25C298.545 187.76 298.841 187.064 299.136 186.358C300.19 183.849 301.244 181.14 302.298 178.358C303.352 178.579 312.037 180.339 316.084 179.412C319.752 178.579 324.2 176.503 325.844 172.877C326.259 172.037 326.493 171.119 326.53 170.183C326.567 169.246 326.406 168.313 326.058 167.443C325.71 166.572 325.182 165.785 324.51 165.133C323.838 164.48 323.035 163.976 322.155 163.655C316.811 161.852 308.653 167.923 305.66 171.981C305.481 172.224 303.858 175.027 302.867 176.819C303.288 175.681 303.721 174.574 304.142 173.394C304.996 171.064 305.776 168.724 306.63 166.205L307.747 162.464C308.147 161.23 308.411 159.871 308.748 158.564C309.475 155.507 310.066 152.377 310.593 149.215C312.627 149.953 319.9 152.493 323.673 152.219C327.446 151.945 332.105 150.585 334.308 147.244C334.846 146.477 335.216 145.605 335.395 144.685C335.573 143.765 335.556 142.818 335.345 141.905C335.133 140.992 334.731 140.134 334.166 139.387C333.6 138.64 332.884 138.02 332.063 137.568C327.046 134.986 318.066 139.75 314.493 143.302C314.271 143.523 311.995 146.358 310.772 147.939C311.078 146.032 311.383 144.134 311.626 142.195C312.321 136.609 312.848 130.928 313.396 125.257C313.565 123.518 313.755 121.8 313.934 120.061C314.661 120.335 323.241 123.529 327.467 123.223C331.219 122.96 335.899 121.579 338.102 118.248C338.639 117.481 339.008 116.609 339.185 115.689C339.363 114.77 339.345 113.823 339.134 112.911C338.922 111.998 338.521 111.141 337.957 110.393C337.392 109.646 336.677 109.026 335.857 108.573C330.84 105.99 321.86 110.754 318.287 114.306C318.013 114.57 314.745 118.659 313.966 119.734C314.377 115.929 314.809 112.135 315.388 108.414C316.153 103.385 317.241 98.4106 318.645 93.5214C318.983 93.6479 327.92 97.0207 332.242 96.6834C335.994 96.4199 340.674 95.0497 342.877 91.7085C343.413 90.9285 343.777 90.0433 343.945 89.1117C344.113 88.1801 344.081 87.2235 343.85 86.3053C343.62 85.3871 343.197 84.5285 342.609 83.7864C342.022 83.0443 341.283 82.4358 340.442 82.0012C335.435 79.4189 326.445 84.183 322.872 87.7349C322.598 88.009 319.088 92.4147 318.508 93.2579C318.593 92.9733 318.645 92.6677 318.73 92.3831C320.279 87.5215 322.254 82.8059 324.632 78.2911C325.918 75.7826 327.278 73.4533 328.658 71.2188C330.26 72.0198 337.617 75.5929 341.538 75.751C345.301 75.8985 350.128 75.0448 352.658 71.9671C353.277 71.2635 353.741 70.4374 354.02 69.5425C354.299 68.6476 354.385 67.704 354.275 66.7732C354.165 65.8425 353.859 64.9454 353.379 64.1405C352.899 63.3356 352.255 62.6409 351.488 62.1017C346.787 58.9397 337.333 62.7341 333.401 65.875C333.18 66.0436 331.198 67.983 329.776 69.4797C330.408 68.4257 331.051 67.4349 331.683 66.4969C334.044 62.9449 336.426 59.8356 338.555 57.0952C339.778 55.5563 340.906 54.1756 341.991 52.8792C343.973 52.8792 351.952 52.6051 355.44 50.9714C358.929 49.3377 362.745 46.376 363.63 42.5078C363.854 41.5983 363.885 40.6517 363.719 39.7296C363.554 38.8076 363.196 37.9307 362.669 37.1562C362.142 36.3816 361.458 35.7268 360.661 35.2342C359.864 34.7416 358.972 34.4223 358.044 34.2972C352.384 33.728 345.712 41.38 343.667 45.9755C343.499 46.376 341.443 52.9108 341.559 52.9108H341.686C340.632 54.1124 339.493 55.4193 338.302 56.8738C336.1 59.5615 333.654 62.6287 331.209 66.149C328.518 69.9018 326.055 73.8121 323.831 77.859C321.305 82.3754 319.188 87.1093 317.507 92.0037C317.507 92.0037 317.507 92.1196 317.507 92.1828C317.507 90.528 317.507 85.9115 317.412 85.5532C316.769 80.5572 312.585 71.2926 307.041 70.2596C306.111 70.1131 305.16 70.1651 304.252 70.4122C303.343 70.6592 302.497 71.0958 301.77 71.6931C301.042 72.2904 300.449 73.035 300.029 73.8779C299.61 74.7208 299.374 75.6429 299.336 76.5836C299.009 80.5467 301.887 84.5203 304.701 87.0288C307.863 89.8535 316.643 92.5939 317.349 92.8047C315.776 97.8259 314.537 102.945 313.639 108.13C313.101 111.144 312.659 114.201 312.247 117.279C312.247 115.845 312.195 114.57 312.174 114.391C311.52 109.395 307.336 100.119 301.792 99.0971C300.863 98.9522 299.913 99.0054 299.006 99.2532C298.099 99.501 297.254 99.9378 296.528 100.535C295.801 101.132 295.209 101.876 294.79 102.718C294.371 103.56 294.135 104.481 294.098 105.421C293.771 109.384 296.648 113.358 299.452 115.866C302.256 118.375 309.739 120.894 311.71 121.516C311.573 122.696 311.415 123.877 311.267 125.057C310.593 130.717 309.95 136.367 309.159 141.921C308.875 143.871 308.527 145.779 308.179 147.686C308.179 146.411 308.126 145.347 308.105 145.188C307.462 140.193 303.278 130.917 297.734 129.895C296.804 129.75 295.854 129.803 294.946 130.051C294.039 130.299 293.193 130.735 292.466 131.332C291.739 131.929 291.146 132.673 290.726 133.515C290.306 134.358 290.068 135.279 290.029 136.219C289.702 140.182 292.58 144.156 295.394 146.664C298.208 149.173 304.954 151.439 307.304 152.198C306.893 154.147 306.482 156.097 305.997 157.963C305.628 159.228 305.375 160.471 304.943 161.726C304.511 162.98 304.142 164.203 303.742 165.425C302.898 167.755 302.034 170.168 301.149 172.413C300.548 173.984 299.947 175.47 299.347 176.967C299.652 175.038 300.169 171.233 300.169 170.917C300.12 166.472 298.926 162.116 296.701 158.269C296.712 157.775 296.68 157.281 296.606 156.793C296.489 155.863 296.178 154.969 295.693 154.167C295.208 153.366 294.559 152.676 293.79 152.141C293.021 151.606 292.148 151.239 291.227 151.064C290.307 150.888 289.36 150.908 288.448 151.123C282.988 152.577 279.531 162.147 279.278 167.175C279.278 167.47 279.458 170.706 279.616 172.751C279.342 171.56 279.089 170.411 278.794 169.188C278.214 166.785 277.571 164.392 276.896 161.81C276.527 160.577 276.148 159.333 275.769 158.079C275.389 156.825 274.883 155.549 274.451 154.263C273.397 151.323 272.132 148.382 270.825 145.463C272.933 144.957 280.406 143.049 283.4 140.751C286.393 138.453 289.544 134.712 289.523 130.728C289.549 129.791 289.376 128.86 289.018 127.994C288.659 127.129 288.122 126.348 287.442 125.704C286.762 125.06 285.954 124.566 285.071 124.255C284.187 123.944 283.248 123.822 282.314 123.898C276.707 124.509 271.837 133.384 270.825 138.369C270.762 138.675 270.425 142.301 270.277 144.293C269.476 142.543 268.686 140.783 267.821 139.023C265.313 133.974 262.625 128.946 259.959 123.919C259.136 122.38 258.346 120.831 257.545 119.292C258.293 119.113 267.221 117.047 270.572 114.464C273.555 112.177 276.728 108.436 276.696 104.451C276.721 103.515 276.549 102.584 276.191 101.718C275.832 100.853 275.295 100.072 274.615 99.428C273.935 98.7837 273.127 98.2898 272.243 97.9786C271.36 97.6673 270.42 97.5457 269.487 97.6215C263.879 98.2223 259.01 107.107 257.998 112.093C257.914 112.462 257.45 117.679 257.397 119.007C255.627 115.603 253.898 112.198 252.328 108.773C250.191 104.16 248.353 99.4138 246.826 94.5649C247.174 94.4806 256.501 92.362 259.937 89.727C262.92 87.4293 266.093 83.6876 266.061 79.7035C266.086 78.767 265.914 77.8357 265.556 76.9702C265.197 76.1047 264.66 75.3244 263.98 74.6801C263.3 74.0358 262.492 73.5419 261.608 73.2307C260.725 72.9194 259.786 72.7977 258.852 72.8736C253.245 73.4849 248.375 82.3596 247.363 87.345C247.279 87.735 246.773 93.3422 246.762 94.3646C246.668 94.08 246.552 93.7955 246.467 93.5214C245.073 88.6091 244.118 83.583 243.611 78.5019C243.295 75.7088 243.158 73.0106 243.073 70.3861C244.855 70.1648 252.96 69.0897 256.312 67.0555C259.663 65.0213 263.089 61.7328 263.5 57.7697C263.627 56.8419 263.559 55.8976 263.298 54.9982C263.037 54.0987 262.59 53.2642 261.985 52.5486C261.381 51.8331 260.633 51.2525 259.79 50.8446C258.947 50.4367 258.028 50.2106 257.092 50.1809C251.442 50.1809 245.624 58.5181 244.075 63.3138C243.99 63.5667 243.421 66.3177 243.021 68.3203C243.021 67.1293 242.958 65.9066 242.968 64.7788C242.968 60.5628 243.242 56.5998 243.506 53.1848C243.674 51.2244 243.864 49.4537 244.064 47.7989C245.698 46.6711 252.222 42.0651 254.225 38.7767C256.227 35.4882 257.787 30.9244 256.333 27.1827C256.019 26.3007 255.523 25.4947 254.877 24.8171C254.231 24.1395 253.45 23.6053 252.584 23.2495C251.718 22.8936 250.787 22.7239 249.851 22.7514C248.915 22.779 247.996 23.0031 247.152 23.4093C242.135 26.0022 240.828 36.0573 241.651 41.0533C241.724 41.4854 243.611 48.0624 243.695 48.0097L243.801 47.9465C243.579 49.5275 243.358 51.2455 243.158 53.1111C242.81 56.5682 242.462 60.4891 242.357 64.7578C242.204 69.3732 242.313 73.9936 242.683 78.5968C243.079 83.7317 243.929 88.8214 245.224 93.806C245.235 93.8674 245.252 93.9275 245.276 93.9852C244.391 92.5939 241.777 88.7784 241.545 88.5044C238.204 84.6467 229.646 79.2292 224.502 81.432C223.649 81.8212 222.887 82.3859 222.267 83.0891C221.647 83.7924 221.182 84.6185 220.903 85.5136C220.623 86.4086 220.535 87.3526 220.645 88.2838C220.755 89.215 221.06 90.1126 221.54 90.918C223.448 94.4068 228.001 96.1248 231.722 96.6729Z" fill="black"/>
<path d="M328.437 70.1753C328.532 70.1753 330.239 63.5878 330.303 63.1557C330.998 58.1702 329.407 48.1256 324.326 45.6698C323.472 45.285 322.546 45.0847 321.609 45.082C320.672 45.0793 319.745 45.2744 318.889 45.6543C318.032 46.0343 317.266 46.5907 316.639 47.2872C316.012 47.9836 315.539 48.8045 315.251 49.6961C313.881 53.4378 315.61 58.0227 317.655 61.1847C320.058 64.8948 328.437 70.1648 328.437 70.1753Z" fill="black"/>
</g>
<path d="M264.807 68.4151H67.2136C60.3505 68.4151 54.7869 73.9787 54.7869 80.8418V345.048C54.7869 351.911 60.3505 357.475 67.2136 357.475H264.807C271.67 357.475 277.234 351.911 277.234 345.048V80.8418C277.234 73.9787 271.67 68.4151 264.807 68.4151Z" fill="#263238"/>
<path d="M266.599 85.511H65.4323V343.762H266.599V85.511Z" fill="white" stroke="#263238" stroke-linecap="round" stroke-linejoin="round"/>
<path d="M125.163 124.182H206.869" stroke="#263238" stroke-linecap="round" stroke-linejoin="round"/>
<path d="M87.598 179.781C95.0664 179.781 101.121 173.726 101.121 166.258C101.121 158.79 95.0664 152.735 87.598 152.735C80.1295 152.735 74.0751 158.79 74.0751 166.258C74.0751 173.726 80.1295 179.781 87.598 179.781Z" stroke="#263238" stroke-linecap="round" stroke-linejoin="round"/>
<path d="M107.308 167.386H245.34" stroke="#263238" stroke-linecap="round" stroke-linejoin="round"/>
<path d="M81.959 162.885L87.0288 170.769L103.366 149.362" stroke="#38B6FF" stroke-width="4" stroke-linecap="round" stroke-linejoin="round"/>
<path d="M90.7012 212.67C97.9699 210.954 102.472 203.671 100.756 196.402C99.0405 189.134 91.7573 184.632 84.4885 186.348C77.2198 188.063 72.7181 195.346 74.4337 202.615C76.1492 209.884 83.4325 214.386 90.7012 212.67Z" stroke="#263238" stroke-linecap="round" stroke-linejoin="round"/>
<path d="M107.308 200.629H245.34" stroke="#263238" stroke-linecap="round" stroke-linejoin="round"/>
<path d="M81.959 196.118L87.0288 204.012L103.366 182.595" stroke="#38B6FF" stroke-width="4" stroke-linecap="round" stroke-linejoin="round"/>
<path d="M90.696 245.91C97.9647 244.194 102.466 236.911 100.751 229.642C99.0353 222.373 91.7521 217.872 84.4834 219.587C77.2146 221.303 72.7129 228.586 74.4285 235.855C76.144 243.123 83.4273 247.625 90.696 245.91Z" stroke="#263238" stroke-linecap="round" stroke-linejoin="round"/>
<path d="M107.308 233.872H245.34" stroke="#263238" stroke-linecap="round" stroke-linejoin="round"/>
<path d="M81.959 229.361L87.0288 237.245L103.366 215.838" stroke="#38B6FF" stroke-width="4" stroke-linecap="round" stroke-linejoin="round"/>
<path d="M97.1558 275.54C102.437 270.259 102.437 261.697 97.1558 256.416C91.8749 251.135 83.3127 251.135 78.0317 256.416C72.7507 261.697 72.7507 270.259 78.0317 275.54C83.3127 280.821 91.8748 280.821 97.1558 275.54Z" stroke="#263238" stroke-linecap="round" stroke-linejoin="round"/>
<path d="M107.308 267.105H245.34" stroke="#263238" stroke-linecap="round" stroke-linejoin="round"/>
<path d="M81.959 262.604L87.0288 270.488L103.366 249.081" stroke="#38B6FF" stroke-width="4" stroke-linecap="round" stroke-linejoin="round"/>
<path d="M87.598 312.743C95.0664 312.743 101.121 306.689 101.121 299.22C101.121 291.752 95.0664 285.697 87.598 285.697C80.1295 285.697 74.0751 291.752 74.0751 299.22C74.0751 306.689 80.1295 312.743 87.598 312.743Z" stroke="#263238" stroke-linecap="round" stroke-linejoin="round"/>
<path d="M107.308 300.348H245.34" stroke="#263238" stroke-linecap="round" stroke-linejoin="round"/>
<path d="M81.959 295.837L87.0288 303.731L103.366 282.314" stroke="#38B6FF" stroke-width="4" stroke-linecap="round" stroke-linejoin="round"/>
<path d="M192.513 62.576C191.539 62.5594 190.587 62.2815 189.757 61.7713C188.927 61.2611 188.25 60.5373 187.795 59.6756C187.341 58.8139 187.126 57.8459 187.173 56.8728C187.221 55.8997 187.529 54.9573 188.065 54.144C189.875 51.2467 190.873 47.9162 190.954 44.5011C191.035 41.086 190.197 37.7118 188.527 34.7318C186.857 31.7518 184.416 29.2755 181.461 27.5622C178.505 25.8488 175.144 24.9614 171.728 24.9927C168.312 25.0241 164.967 25.9731 162.044 27.7405C159.121 29.5078 156.726 32.0285 155.111 35.0387C153.496 38.0489 152.72 41.4378 152.864 44.8509C153.007 48.2639 154.066 51.5755 155.929 54.4391C156.431 55.2571 156.706 56.1948 156.723 57.1547C156.741 58.1147 156.501 59.0618 156.029 59.8977C155.557 60.7336 154.869 61.4278 154.038 61.908C153.207 62.3883 152.262 62.6371 151.302 62.6287H118.164L127.123 88.3568H216.713L225.672 62.6287L192.513 62.576ZM171.907 51.646C170.587 51.6481 169.296 51.2586 168.198 50.5267C167.099 49.7949 166.243 48.7536 165.736 47.5347C165.229 46.3158 165.096 44.9739 165.352 43.679C165.608 42.3841 166.243 41.1944 167.175 40.2602C168.108 39.3261 169.297 38.6896 170.591 38.4313C171.886 38.1731 173.228 38.3046 174.448 38.8092C175.667 39.3139 176.71 40.169 177.444 41.2664C178.177 42.3638 178.569 43.6542 178.569 44.9742C178.569 46.7418 177.867 48.4372 176.618 49.6881C175.369 50.9391 173.675 51.6432 171.907 51.646Z" fill="white" stroke="#263238" stroke-linecap="round" stroke-linejoin="round"/>
<path d="M279.584 468.081H395.988V363.862H279.584V468.081Z" fill="#38B6FF" stroke="#263238" stroke-linecap="round" stroke-linejoin="round"/>
<path d="M279.595 468.081H317.075V363.862H279.595V468.081Z" fill="#263238" stroke="#263238" stroke-linecap="round" stroke-linejoin="round"/>
<path d="M293.307 392.288H303.362V363.862H293.307V392.288Z" fill="white" stroke="#263238" stroke-linecap="round" stroke-linejoin="round"/>
<path d="M371.83 385.374H389.168V374.75H371.83V385.374Z" stroke="#263238" stroke-linecap="round" stroke-linejoin="round"/>
<path d="M197.425 468.081H313.828V363.862H197.425V468.081Z" fill="#38B6FF" stroke="#263238" stroke-linecap="round" stroke-linejoin="round"/>
<path d="M197.435 468.081H234.916V363.862H197.435V468.081Z" fill="#263238" stroke="#263238" stroke-linecap="round" stroke-linejoin="round"/>
<path d="M211.148 392.288H221.203V363.862H211.148V392.288Z" fill="white" stroke="#263238" stroke-linecap="round" stroke-linejoin="round"/>
<path d="M288.775 385.374H306.113V374.75H288.775V385.374Z" stroke="#263238" stroke-linecap="round" stroke-linejoin="round"/>
<path d="M114.011 468.081H230.415V363.862H114.011L114.011 468.081Z" fill="#38B6FF" stroke="#263238" stroke-linecap="round" stroke-linejoin="round"/>
<path d="M114.011 468.081H151.491V363.862H114.011L114.011 468.081Z" fill="#263238" stroke="#263238" stroke-linecap="round" stroke-linejoin="round"/>
<path d="M127.724 392.288H137.779V363.862H127.724V392.288Z" fill="white" stroke="#263238" stroke-linecap="round" stroke-linejoin="round"/>
<path d="M207.122 385.374H224.46V374.75H207.122V385.374Z" stroke="#263238" stroke-linecap="round" stroke-linejoin="round"/>
<path d="M239.711 363.746H356.115V259.526H239.711V363.746Z" fill="#38B6FF" stroke="#263238" stroke-linecap="round" stroke-linejoin="round"/>
<path d="M239.722 363.746H277.202V259.526H239.722V363.746Z" fill="#263238" stroke="#263238" stroke-linecap="round" stroke-linejoin="round"/>
<path d="M253.434 287.942H263.489V259.516H253.434V287.942Z" fill="white" stroke="#263238" stroke-linecap="round" stroke-linejoin="round"/>
<path d="M339.957 320.511H351.699V260.665H339.957V320.511Z" stroke="#263238" stroke-linecap="round" stroke-linejoin="round"/>
<path d="M210.041 259.326H326.445V155.107H210.041V259.326Z" fill="#38B6FF" stroke="#263238" stroke-linecap="round" stroke-linejoin="round"/>
<path d="M210.041 259.326H247.521V155.107H210.041V259.326Z" fill="#263238" stroke="#263238" stroke-linecap="round" stroke-linejoin="round"/>
<path d="M223.743 183.533H233.798V155.107H223.743V183.533Z" fill="white" stroke="#263238" stroke-linecap="round" stroke-linejoin="round"/>
<path d="M309.191 216.028H320.932V156.182H309.191V216.028Z" stroke="#263238" stroke-linecap="round" stroke-linejoin="round"/>
<path d="M154.759 363.746H271.163V259.526H154.759V363.746Z" fill="#38B6FF" stroke="#263238" stroke-linecap="round" stroke-linejoin="round"/>
<path d="M154.769 363.746H192.25V259.526H154.769V363.746Z" fill="#263238" stroke="#263238" stroke-linecap="round" stroke-linejoin="round"/>
<path d="M168.482 287.942H178.537V259.516H168.482V287.942Z" fill="white" stroke="#263238" stroke-linecap="round" stroke-linejoin="round"/>
<path d="M252.707 320.511H264.449V260.665H252.707V320.511Z" stroke="#263238" stroke-linecap="round" stroke-linejoin="round"/>
<path d="M384.647 233.809C384.687 233.665 384.758 233.532 384.854 233.417C384.95 233.303 385.069 233.21 385.204 233.146C385.338 233.081 385.485 233.045 385.634 233.042C385.784 233.038 385.932 233.066 386.07 233.124L392.794 236.117L385.595 229.319C385.365 229.141 385.214 228.879 385.176 228.591C385.139 228.302 385.218 228.011 385.395 227.78C385.573 227.549 385.834 227.399 386.123 227.361C386.412 227.324 386.703 227.402 386.934 227.58L394.776 232.481L390.233 226.905C390.082 226.701 390.01 226.449 390.03 226.196C390.05 225.944 390.16 225.706 390.341 225.528C390.521 225.35 390.76 225.243 391.013 225.227C391.267 225.211 391.517 225.286 391.719 225.44L400.762 233.082L399.909 229.751C399.835 229.435 399.883 229.103 400.042 228.82C400.201 228.538 400.461 228.325 400.769 228.224C401.078 228.124 401.413 228.142 401.708 228.277C402.003 228.411 402.238 228.651 402.364 228.95C402.944 230.404 404.051 233.166 404.472 234.041C405.209 235.649 405.669 237.37 405.832 239.132C405.758 240.186 405.748 242.568 405.748 242.568L422.654 255.869L423.961 254.32L428.535 258.652L428.398 260.359L432.562 263.521C432.562 263.521 460.461 249.345 464.097 249.102C467.734 248.86 472.772 255.237 470.59 261.624C468.408 268.011 431.497 278.077 430.285 278.161C429.073 278.245 402.449 247.142 402.449 247.142C400.225 246.314 398.054 245.353 395.946 244.264C394.291 243.274 387.566 240.597 385.406 239.753C385.228 239.678 385.084 239.539 385.004 239.363C384.924 239.188 384.913 238.988 384.973 238.805C385.034 238.625 385.16 238.475 385.325 238.383C385.491 238.292 385.685 238.265 385.869 238.309L391.456 239.627L384.984 234.884C384.832 234.755 384.719 234.586 384.66 234.395C384.6 234.205 384.595 234.002 384.647 233.809Z" fill="#263238" stroke="#263238" stroke-linecap="round" stroke-linejoin="round"/>
<path d="M321.006 387.661L330.281 380.241L341.633 371.166L374.665 344.732L374.918 344.9L374.95 344.921L374.971 344.943L407.582 367.519L419.218 375.572L428.925 382.296L389.579 213.551L387.313 213.614L384.425 213.688L345.448 214.742L321.006 387.661Z" fill="#263238" stroke="#263238" stroke-linecap="round" stroke-linejoin="round"/>
<path d="M374.75 344.763L374.771 344.732L374.961 344.943L374.75 344.763Z" fill="white" stroke="#263238" stroke-linecap="round" stroke-linejoin="round"/>
<path d="M330.281 380.241L341.633 371.166L355.904 214.742L374.971 213.951L350.044 214.742L330.281 380.241Z" fill="white" stroke="#263238" stroke-linecap="round" stroke-linejoin="round"/>
<path d="M384.415 213.646L384.425 213.688L407.582 367.519L419.218 375.572L387.313 213.614L387.303 213.551L384.415 213.646Z" fill="white" stroke="#263238" stroke-linecap="round" stroke-linejoin="round"/>
<path d="M301.033 196.307C301.033 193.989 297.144 191.501 297.376 189.246C297.607 186.99 301.939 185.304 302.414 183.09C302.888 180.877 299.6 177.588 300.306 175.417C301.012 173.246 305.576 172.54 306.514 170.453C307.452 168.366 304.912 164.498 306.061 162.516C307.209 160.535 311.826 160.798 313.164 158.954C314.503 157.109 312.838 152.798 314.366 151.101C315.894 149.404 320.363 150.617 322.06 149.088C323.757 147.56 323.009 142.996 324.864 141.647C326.719 140.298 330.819 142.416 332.8 141.268C334.782 140.119 334.993 135.513 337.09 134.575C339.188 133.637 342.74 136.567 344.932 135.861C347.124 135.154 348.273 130.685 350.529 130.211C352.784 129.737 355.63 133.373 357.907 133.11C360.183 132.846 362.239 128.746 364.547 128.746C366.855 128.746 368.942 132.878 371.198 133.11C373.453 133.342 376.383 129.737 378.576 130.211C380.768 130.685 382.012 135.154 384.172 135.861C386.333 136.567 389.938 133.647 392.014 134.575C394.091 135.502 394.375 140.182 396.304 141.236C398.233 142.29 402.396 140.266 404.241 141.615C406.085 142.965 405.347 147.528 407.044 149.057C408.741 150.585 413.2 149.373 414.738 151.07C416.277 152.767 414.591 157.078 415.94 158.922C417.289 160.767 421.895 160.503 423.044 162.485C424.193 164.466 421.653 168.324 422.591 170.421C423.529 172.519 428.093 173.204 428.799 175.396C429.505 177.588 426.217 180.803 426.691 183.059C427.165 185.314 431.487 186.916 431.718 189.214C431.95 191.512 428.072 193.957 428.072 196.276C428.072 198.595 431.961 201.082 431.718 203.338C431.476 205.593 427.165 207.269 426.691 209.493C426.217 211.717 429.505 214.995 428.799 217.156C428.093 219.316 423.529 220.044 422.591 222.12C421.653 224.196 424.193 228.086 423.044 230.057C421.895 232.028 417.279 231.775 415.94 233.619C414.601 235.464 416.267 239.785 414.738 241.482C413.21 243.179 408.741 241.956 407.044 243.495C405.347 245.034 406.096 249.587 404.241 250.936C402.386 252.285 398.286 250.156 396.304 251.305C394.322 252.454 394.112 257.071 392.014 258.009C389.917 258.947 386.354 256.006 384.172 256.723C381.991 257.439 380.831 261.887 378.576 262.362C376.32 262.836 373.474 259.2 371.198 259.463C368.921 259.727 366.866 263.827 364.547 263.827C362.228 263.827 360.162 259.706 357.907 259.463C355.651 259.221 352.721 262.836 350.529 262.362C348.336 261.887 347.093 257.418 344.932 256.712C342.771 256.006 339.167 258.926 337.09 257.998C335.014 257.071 334.771 252.454 332.8 251.305C330.83 250.156 326.708 252.275 324.864 250.926C323.019 249.577 323.757 245.023 322.06 243.548C320.363 242.072 315.894 243.232 314.366 241.535C312.838 239.838 314.514 235.527 313.164 233.672C311.815 231.817 307.209 232.091 306.061 230.109C304.912 228.128 307.452 224.27 306.514 222.173C305.576 220.075 301.012 219.39 300.306 217.208C299.6 215.027 302.888 211.801 302.414 209.546C301.939 207.29 297.618 205.688 297.386 203.39C297.154 201.093 301.033 198.616 301.033 196.307Z" fill="white" stroke="#263238" stroke-linecap="round" stroke-linejoin="round"/>
<path d="M364.568 250.325C394.401 250.325 418.586 226.141 418.586 196.307C418.586 166.474 394.401 142.29 364.568 142.29C334.735 142.29 310.551 166.474 310.551 196.307C310.551 226.141 334.735 250.325 364.568 250.325Z" fill="#38B6FF" stroke="#263238" stroke-linecap="round" stroke-linejoin="round"/>
<path d="M411.125 207.531C417.321 181.822 401.502 155.958 375.793 149.762C350.084 143.566 324.22 159.385 318.024 185.094C311.828 210.803 327.646 236.667 353.355 242.863C379.065 249.059 404.929 233.24 411.125 207.531Z" fill="#263238"/>
<path d="M480.972 374.17C480.972 374.17 480.055 381.938 481.193 385.132C482.331 388.325 489.625 410.27 490.795 429.684C491.965 449.099 493.072 466.933 492.387 467.85C491.702 468.767 487.591 468.303 487.591 468.303H473.889C473.582 468.07 473.366 467.736 473.281 467.36C473.197 466.984 473.248 466.59 473.425 466.247C474.11 465.109 480.74 460.082 481.657 458.479C482.552 457.062 483.244 455.526 483.712 453.916C483.712 453.231 482.11 436.535 476.629 425.574C471.149 414.612 464.066 387.63 463.381 377.817L480.972 374.17Z" fill="white" stroke="#263238" stroke-linecap="round" stroke-linejoin="round"/>
<path d="M473.425 466.258C474.919 464.69 476.522 463.228 478.221 461.884V464.203H492.587C492.703 465.425 492.636 466.658 492.387 467.86C491.702 468.777 487.591 468.313 487.591 468.313H473.889C473.582 468.081 473.366 467.747 473.281 467.37C473.197 466.994 473.248 466.6 473.425 466.258Z" fill="#38B6FF" stroke="#263238" stroke-linecap="round" stroke-linejoin="round"/>
<path d="M466.342 375.319C466.342 375.319 463.18 398.17 465.436 405.021C467.691 411.872 466.806 424.214 463.602 437.231C460.398 450.248 457.9 458.479 457.9 459.165C457.9 459.85 457.9 466.016 457.215 467.154C456.53 468.292 436.419 468.071 435.081 468.071C433.742 468.071 432.34 466.701 433.489 465.33C434.638 463.96 440.804 462.464 444.904 460.535C448.793 458.701 449.015 458.248 449.015 458.248C449.015 458.248 451.302 431.518 450.385 419.64C449.468 407.761 444.43 383.087 445.347 374.866L466.342 375.319Z" fill="white" stroke="#263238" stroke-linecap="round" stroke-linejoin="round"/>
<path d="M435.049 468.071C433.679 468.071 432.309 466.701 433.458 465.33C434.374 464.224 438.559 463.043 442.29 461.61L443.049 463.275L457.805 462.168C457.731 464.15 457.562 466.5 457.173 467.154C456.53 468.303 436.419 468.071 435.049 468.071Z" fill="#38B6FF" stroke="#263238" stroke-linecap="round" stroke-linejoin="round"/>
<path d="M479.106 297.829C479.106 297.829 486.906 314.788 487.591 325.064C488.276 335.341 483.934 346.534 483.934 346.534L486.674 376.046C486.674 376.046 477.536 381.759 462.232 381.527C446.928 381.295 439.392 378.787 439.392 378.787C439.392 378.787 437.568 342.951 442.364 325.56C447.16 308.169 445.452 298.735 445.452 298.735C445.452 298.735 466.732 299.61 479.106 297.829Z" fill="#263238" stroke="#263238" stroke-linecap="round" stroke-linejoin="round"/>
<path d="M450.058 232.249C450.058 232.249 452.292 239.627 453.146 243.748C454 247.869 451.776 255.764 448.856 261.255C445.937 266.746 442.669 272.596 444.219 277.571C445.768 282.546 446.453 284.443 446.453 284.443C446.453 284.443 445.252 296.627 445.399 298.693C445.547 300.759 454.327 302.814 463.085 301.95C471.844 301.086 478.368 299.378 479.054 297.829C479.739 296.279 479.054 287.7 480.255 283.241C481.457 278.783 481.804 257.945 479.054 253.529C476.303 249.113 469.958 242.03 469.958 242.03L464.814 228.465L450.058 232.249Z" fill="#38B6FF" stroke="#263238" stroke-linecap="round" stroke-linejoin="round"/>
<path d="M472.593 245.002C469.39 244.292 466.051 244.512 462.969 245.635C459.607 246.921 455.286 250.251 452.219 252.855C453.188 249.366 453.652 245.993 453.178 243.748C452.324 239.627 450.09 232.249 450.09 232.249L464.846 228.465L470 242.03C470 242.03 471.138 243.253 472.593 245.002Z" fill="white" stroke="#263238" stroke-linecap="round" stroke-linejoin="round"/>
<path d="M443.281 204.149C443.281 204.149 441.173 209.651 440.488 212.002C439.803 214.352 438.675 216.66 437.273 216.882C435.871 217.103 434.575 218.178 435.439 219.98C436.314 221.449 437.413 222.771 438.696 223.901C438.696 223.901 439.95 232.818 440.878 233.935C441.805 235.053 446.148 234.989 448.772 234.315C451.397 233.64 456.498 232.786 456.498 232.786C456.498 232.786 458.153 214.868 457.12 211.116C456.087 207.364 451.586 201.989 450.258 201.346C448.93 200.703 443.281 204.149 443.281 204.149Z" fill="white" stroke="#263238" stroke-linecap="round" stroke-linejoin="round"/>
<path d="M442.258 215.269C442.164 216.207 442.438 217.008 442.87 217.05C443.302 217.092 443.702 216.355 443.797 215.406C443.892 214.457 443.608 213.667 443.175 213.625C442.743 213.583 442.343 214.32 442.258 215.269Z" fill="#263238"/>
<path d="M446.611 212.908C446.611 212.908 444.124 209.925 442.301 210.958" stroke="#263238" stroke-linecap="round" stroke-linejoin="round"/>
<path d="M445.241 223.986C443.94 224.914 442.392 225.435 440.793 225.482" stroke="#263238" stroke-linecap="round" stroke-linejoin="round"/>
<path d="M449.373 203.506C449.373 203.506 454.042 212.729 454.453 213.804C454.864 214.879 455.191 233.83 454.105 238.257C453.606 240.679 452.312 242.864 450.427 244.465C456.434 245.752 462.573 246.318 468.714 246.151C479.085 245.909 483.797 243.411 483.797 243.411C482.707 235.053 482.046 226.645 481.815 218.22C481.573 205.783 476.029 196.824 469.104 195.159C462.179 193.493 453.779 194.948 453.779 194.948C453.779 194.948 448.941 189.499 442.87 193.599C436.799 197.699 439.023 203.591 441.816 205.393C443.906 206.661 446.116 207.72 448.414 208.555L449.373 203.506Z" fill="#263238" stroke="#263238" stroke-linecap="round" stroke-linejoin="round"/>
<path d="M432.024 266.599C432.024 266.599 458.848 250.104 462.453 249.587C466.058 249.071 471.549 255.079 469.831 261.603C468.113 268.127 432.024 281.197 430.833 281.365C429.642 281.534 400.383 253.055 400.383 253.055C398.101 252.392 395.863 251.59 393.68 250.652C391.962 249.787 385.058 247.606 382.855 246.921C382.672 246.862 382.518 246.735 382.426 246.567C382.334 246.398 382.31 246.2 382.36 246.014C382.403 245.828 382.515 245.666 382.674 245.56C382.832 245.454 383.025 245.413 383.213 245.445L388.873 246.362L382.086 242.093C381.914 241.981 381.779 241.822 381.697 241.635C381.615 241.448 381.589 241.241 381.622 241.039C381.652 240.894 381.712 240.756 381.798 240.636C381.885 240.515 381.996 240.414 382.125 240.34C382.253 240.265 382.396 240.218 382.543 240.203C382.691 240.187 382.84 240.203 382.981 240.249L389.906 242.757L382.233 236.497C382.019 236.335 381.875 236.097 381.83 235.833C381.785 235.569 381.842 235.297 381.991 235.074C382.058 234.95 382.149 234.84 382.259 234.752C382.369 234.664 382.495 234.599 382.631 234.561C382.767 234.522 382.909 234.512 383.048 234.529C383.188 234.547 383.323 234.592 383.445 234.663L391.624 238.984L386.681 233.714C386.573 233.6 386.493 233.463 386.445 233.313C386.397 233.163 386.383 233.005 386.405 232.85C386.426 232.694 386.481 232.545 386.568 232.414C386.654 232.283 386.768 232.172 386.902 232.091C387.079 231.985 387.284 231.934 387.49 231.943C387.696 231.953 387.895 232.022 388.062 232.143L397.632 239.121L396.578 235.854C396.521 235.681 396.5 235.499 396.517 235.318C396.535 235.138 396.59 234.963 396.68 234.805C396.769 234.647 396.891 234.509 397.037 234.401C397.182 234.293 397.349 234.217 397.527 234.178C397.809 234.116 398.104 234.151 398.364 234.277C398.624 234.403 398.834 234.613 398.96 234.873C399.645 236.286 400.952 238.942 401.437 239.806C402.29 241.354 402.871 243.037 403.155 244.781C403.155 245.835 403.334 248.217 403.334 248.217L432.024 266.599Z" fill="white" stroke="#263238" stroke-linecap="round" stroke-linejoin="round"/>
<path d="M416.815 268.77L417.152 268.211L422.538 260.77L432.024 266.557C432.024 266.557 458.848 250.061 462.453 249.545C466.058 249.029 471.549 255.036 469.831 261.561C468.113 268.085 432.024 281.154 430.833 281.323C430.243 281.418 425.9 277.107 416.815 268.77Z" fill="#38B6FF" stroke="#263238" stroke-linecap="round" stroke-linejoin="round"/>
<path d="M425.837 262.773L418.29 271.911L413.958 268.475L421.495 259.115L425.837 262.773Z" fill="#38B6FF" stroke="#263238" stroke-linecap="round" stroke-linejoin="round"/>
<path d="M326.245 198.732V182.078H331.515C332.366 182.041 333.212 182.238 333.96 182.648C334.595 183.025 335.091 183.598 335.372 184.281C335.701 185.105 335.858 185.987 335.836 186.874C335.889 187.843 335.678 188.809 335.225 189.667C334.854 190.318 334.269 190.821 333.57 191.09C332.804 191.385 331.988 191.529 331.167 191.512H329.628V198.732H326.245ZM329.639 189.13H330.83C331.223 189.154 331.615 189.074 331.968 188.898C332.105 188.816 332.224 188.708 332.318 188.579C332.412 188.451 332.479 188.305 332.516 188.15C332.623 187.719 332.672 187.276 332.663 186.832C332.67 186.404 332.631 185.977 332.548 185.557C332.489 185.234 332.308 184.947 332.042 184.756C331.671 184.533 331.24 184.43 330.808 184.461H329.639V189.13Z" fill="#38B6FF"/>
<path d="M337.47 198.732V182.079H341.781C342.757 182.058 343.731 182.186 344.669 182.458C345.425 182.679 346.081 183.156 346.524 183.807C346.997 184.617 347.22 185.548 347.167 186.484C347.176 187.093 347.119 187.701 346.998 188.297C346.893 188.797 346.681 189.268 346.376 189.678C346.051 190.094 345.622 190.418 345.132 190.616L347.441 198.732H343.962L342.055 191.185H340.864V198.732H337.47ZM340.864 189.172H341.844C342.291 189.195 342.737 189.105 343.14 188.908C343.455 188.727 343.694 188.439 343.815 188.097C343.951 187.66 344.015 187.205 344.005 186.748C344.045 186.132 343.898 185.518 343.583 184.988C343.39 184.767 343.146 184.596 342.873 184.491C342.599 184.387 342.303 184.351 342.012 184.387H340.864V189.172Z" fill="#38B6FF"/>
<path d="M353.975 198.953C352.967 199.007 351.964 198.781 351.077 198.3C350.368 197.867 349.829 197.205 349.549 196.423C349.216 195.483 349.059 194.49 349.085 193.493V187.285C349.058 186.292 349.215 185.302 349.549 184.366C349.827 183.589 350.367 182.933 351.077 182.511C351.991 182.09 352.985 181.873 353.991 181.873C354.997 181.873 355.991 182.09 356.905 182.511C357.616 182.935 358.159 183.59 358.444 184.366C358.774 185.299 358.931 186.285 358.908 187.275V193.483C358.928 194.479 358.771 195.471 358.444 196.413C358.16 197.195 357.617 197.857 356.905 198.289C356.008 198.775 354.994 199.005 353.975 198.953ZM353.975 196.508C354.325 196.539 354.672 196.433 354.945 196.213C355.157 195.991 355.3 195.713 355.356 195.412C355.42 195.064 355.451 194.711 355.451 194.358V186.484C355.452 186.131 355.421 185.778 355.356 185.43C355.298 185.133 355.155 184.858 354.945 184.64C354.672 184.419 354.325 184.313 353.975 184.345C353.639 184.318 353.306 184.424 353.048 184.64C352.838 184.858 352.695 185.133 352.637 185.43C352.569 185.777 352.533 186.13 352.531 186.484V194.358C352.531 194.711 352.563 195.064 352.626 195.412C352.674 195.713 352.814 195.993 353.027 196.213C353.293 196.43 353.633 196.536 353.975 196.508Z" fill="#38B6FF"/>
<path d="M361.174 198.732V182.078H365.243C366.368 182.031 367.492 182.218 368.542 182.627C369.298 182.961 369.898 183.572 370.217 184.334C370.574 185.283 370.738 186.293 370.702 187.306V193.367C370.737 194.404 370.572 195.438 370.217 196.413C369.904 197.183 369.314 197.807 368.563 198.163C367.539 198.589 366.434 198.783 365.327 198.732H361.174ZM364.558 196.371H365.285C365.752 196.409 366.219 196.302 366.623 196.065C366.764 195.962 366.881 195.831 366.968 195.681C367.055 195.53 367.11 195.363 367.129 195.19C367.208 194.71 367.244 194.223 367.235 193.736V186.874C367.248 186.407 367.202 185.939 367.098 185.483C367.065 185.326 367.002 185.178 366.911 185.045C366.821 184.913 366.705 184.801 366.571 184.713C366.165 184.516 365.714 184.429 365.264 184.461H364.558V196.371Z" fill="#38B6FF"/>
<path d="M377.638 198.953C376.617 199.012 375.6 198.789 374.697 198.31C373.999 197.884 373.475 197.222 373.221 196.445C372.924 195.482 372.782 194.479 372.8 193.472V182.078H376.152V193.936C376.151 194.342 376.183 194.747 376.246 195.148C376.292 195.5 376.434 195.832 376.657 196.107C376.93 196.346 377.28 196.477 377.643 196.477C378.005 196.477 378.356 196.346 378.628 196.107C378.853 195.833 378.992 195.5 379.029 195.148C379.084 194.746 379.112 194.341 379.113 193.936V182.078H382.465V193.472C382.489 194.479 382.347 195.484 382.043 196.445C381.79 197.219 381.271 197.88 380.578 198.31C379.674 198.787 378.658 199.009 377.638 198.953Z" fill="#38B6FF"/>
<path d="M389.453 198.953C388.43 199.006 387.413 198.765 386.523 198.257C385.811 197.805 385.279 197.119 385.016 196.318C384.714 195.386 384.568 194.41 384.584 193.43V187.443C384.564 186.436 384.71 185.432 385.016 184.471C385.28 183.676 385.813 182.998 386.523 182.553C387.417 182.058 388.432 181.824 389.453 181.878C390.423 181.83 391.389 182.033 392.257 182.468C392.919 182.846 393.43 183.442 393.701 184.155C393.993 184.966 394.135 185.823 394.122 186.684V188.086H390.834V186.558C390.834 186.206 390.813 185.854 390.77 185.504C390.741 185.203 390.624 184.917 390.433 184.682C390.305 184.564 390.153 184.476 389.987 184.421C389.822 184.367 389.647 184.348 389.474 184.366C389.295 184.349 389.115 184.37 388.945 184.426C388.774 184.482 388.617 184.573 388.483 184.692C388.275 184.934 388.14 185.23 388.093 185.546C388.04 185.93 388.015 186.318 388.02 186.706V194.273C388.013 194.683 388.048 195.093 388.125 195.496C388.179 195.803 388.33 196.084 388.557 196.297C388.818 196.499 389.145 196.597 389.474 196.571C389.644 196.588 389.815 196.569 389.977 196.514C390.139 196.459 390.287 196.371 390.412 196.255C390.606 196.009 390.727 195.713 390.76 195.401C390.807 195.027 390.832 194.65 390.834 194.273V192.65H394.122V193.936C394.137 194.811 393.998 195.681 393.711 196.508C393.449 197.241 392.948 197.865 392.288 198.278C391.427 198.769 390.443 199.003 389.453 198.953Z" fill="#38B6FF"/>
<path d="M397.759 198.732V184.608H395.187V182.078H403.682V184.608H401.152V198.732H397.759Z" fill="#38B6FF"/>
<path d="M339.936 226.684C339.561 226.489 339.208 226.256 338.882 225.988C338.452 225.668 338.047 225.316 337.67 224.934C337.277 224.541 336.924 224.111 336.616 223.648H336.437H336.226C335.217 223.7 334.213 223.471 333.328 222.984C332.617 222.554 332.077 221.891 331.799 221.108C331.466 220.168 331.308 219.175 331.335 218.178V211.97C331.308 210.976 331.466 209.987 331.799 209.05C332.075 208.274 332.616 207.621 333.328 207.206C334.219 206.739 335.221 206.524 336.226 206.584C337.244 206.536 338.256 206.761 339.156 207.237C339.868 207.655 340.412 208.307 340.695 209.082C341.025 210.016 341.182 211.001 341.159 211.991V218.178C341.163 218.887 341.088 219.594 340.937 220.286C340.815 220.879 340.575 221.442 340.231 221.941C339.885 222.395 339.432 222.757 338.914 222.995L339.472 223.574C339.655 223.761 339.849 223.937 340.052 224.101C340.221 224.256 340.405 224.394 340.6 224.513L339.936 226.684ZM336.226 221.182C336.576 221.208 336.924 221.099 337.196 220.876C337.41 220.657 337.553 220.377 337.607 220.075C337.671 219.728 337.702 219.375 337.702 219.021V211.148C337.703 210.794 337.671 210.441 337.607 210.094C337.551 209.792 337.408 209.514 337.196 209.293C336.92 209.079 336.574 208.974 336.226 208.998C335.884 208.975 335.546 209.08 335.277 209.293C335.065 209.512 334.925 209.792 334.877 210.094C334.812 210.441 334.78 210.794 334.782 211.148V219.021C334.781 219.375 334.813 219.728 334.877 220.075C334.922 220.378 335.062 220.658 335.277 220.876C335.542 221.097 335.882 221.207 336.226 221.182Z" fill="#38B6FF"/>
<path d="M348.136 223.627C347.115 223.683 346.097 223.457 345.196 222.974C344.5 222.547 343.98 221.885 343.73 221.108C343.425 220.148 343.283 219.143 343.309 218.136V206.753H346.661V218.61C346.662 219.016 346.69 219.421 346.745 219.822C346.79 220.177 346.932 220.513 347.156 220.792C347.283 220.921 347.436 221.021 347.605 221.085C347.775 221.148 347.956 221.174 348.136 221.161C348.32 221.176 348.505 221.151 348.678 221.087C348.851 221.023 349.008 220.923 349.137 220.792C349.358 220.512 349.497 220.176 349.538 219.822C349.589 219.42 349.614 219.015 349.612 218.61V206.753H352.964V218.178C352.989 219.185 352.847 220.19 352.542 221.15C352.292 221.927 351.772 222.589 351.077 223.016C350.171 223.485 349.154 223.696 348.136 223.627Z" fill="#38B6FF"/>
<path d="M354.386 223.448L357.612 206.805H361.374L364.536 223.448H361.374L360.774 219.791H358.149L357.506 223.448H354.386ZM358.518 217.714H360.468L359.414 210.99L358.518 217.714Z" fill="#38B6FF"/>
<path d="M366.149 223.448V206.753H369.532V221.098H373.443V223.448H366.149Z" fill="#38B6FF"/>
<path d="M374.961 223.448V206.753H378.386V223.448H374.961Z" fill="#38B6FF"/>
<path d="M382.444 223.448V209.282H379.872V206.753H388.388V209.282H385.859V223.448H382.444Z" fill="#38B6FF"/>
<path d="M392.088 223.448V216.85L388.842 206.805H392.004L393.795 212.655L395.461 206.805H398.538L395.376 216.85V223.448H392.088Z" fill="#38B6FF"/>
<path d="M340.094 166.068L341.232 169.557H344.89L341.928 171.707L343.056 175.185L340.094 173.035L337.132 175.185L338.26 171.707L335.298 169.557H338.966L340.094 166.068Z" fill="#38B6FF"/>
<path d="M352.921 166.068L354.049 169.557H357.717L354.745 171.707L355.883 175.185L352.921 173.035L349.96 175.185L351.087 171.707L348.126 169.557H351.783L352.921 166.068Z" fill="#38B6FF"/>
<path d="M365.738 166.068L366.876 169.557H370.534L367.572 171.707L368.7 175.185L365.738 173.035L362.776 175.185L363.915 171.707L360.942 169.557H364.61L365.738 166.068Z" fill="#38B6FF"/>
<path d="M378.565 166.068L379.693 169.557H383.361L380.399 171.707L381.527 175.185L378.565 173.035L375.603 175.185L376.731 171.707L373.769 169.557H377.437L378.565 166.068Z" fill="#38B6FF"/>
<path d="M391.392 166.068L392.52 169.557H396.178L393.216 171.707L394.354 175.185L391.392 173.035L388.42 175.185L389.558 171.707L386.597 169.557H390.254L391.392 166.068Z" fill="#38B6FF"/>
</svg>
