<svg width="80" height="59" viewBox="0 0 80 59" fill="none" xmlns="http://www.w3.org/2000/svg">
<path fill-rule="evenodd" clip-rule="evenodd" d="M19.1392 35.3207L27.3386 39.9967C30.7446 40.6517 34.3322 38.2695 36.8341 36.1843C42.5916 30.3469 49.5244 25.5224 57.6934 24.0029L30.835 8.665C33.3673 7.5928 36.1708 7.02708 39.0943 7.02708C49.374 7.02708 57.9646 14.2346 59.9544 23.7943C62.3059 23.4672 64.5662 23.4072 66.9481 23.705C64.8374 10.3922 53.172 0.176656 39.0943 0.176656C33.4577 0.176656 28.2131 1.81458 23.7813 4.64403L16.5165 0.504584C14.6779 -0.538432 12.3264 0.0873774 11.2719 1.90386L0.510616 20.3099C-0.544734 22.1264 0.0881281 24.4502 1.92673 25.4923L5.39356 27.4874L5.36314 27.4281L19.0792 35.3508V35.3207H19.1392ZM20.8874 17.1534C21.9427 19.387 29.5093 18.1062 29.5093 23.378C29.5093 26.1774 27.4594 27.726 24.7463 27.9939V30.8233H22.154V27.8745C20.3754 27.5475 18.808 26.8023 17.391 25.5516L19.0488 23.6158C19.8025 24.2708 20.5866 24.7481 21.3699 25.1052C23.2085 25.9095 26.7961 25.9988 26.7961 23.6458C26.7961 20.1313 18.0239 22.6036 18.0239 16.6168C18.0239 14.1745 19.8025 12.5667 22.1835 12.1795V9.28996H24.7767V12.1795C26.3736 12.3872 27.7602 13.0431 29.0268 14.026L27.5498 16.0812C26.8257 15.5747 26.1328 15.1575 25.4096 14.8896C23.4501 14.1153 20.737 14.3831 20.737 16.349C20.737 16.6469 20.797 16.9147 20.8874 17.1534Z" fill="#38B6FF"/>
<path fill-rule="evenodd" clip-rule="evenodd" d="M60.4065 27.6065C53.2321 28.3809 46.2993 32.2233 39.5768 39.1029C33.8498 43.8681 28.7556 45.2082 24.2638 43.1531C23.2694 42.7067 22.3348 42.0809 21.4003 41.2773L12.0552 35.8562C12.5985 37.7328 13.3513 39.5493 14.2858 41.2173C19.2296 49.4077 29.1772 53.8751 38.9744 51.5521C48.3787 48.9905 56.0052 44.5832 61.9139 38.3586C56.7589 47.7106 46.3897 53.1308 30.8055 54.6795C30.8959 54.6795 39.4265 60.3083 50.6997 57.0325C57.3917 55.0967 62.9684 50.54 66.1336 44.4047C69.3292 39.1029 74.2121 34.9926 80 32.6997C73.7905 28.8873 67.2194 26.8322 60.4065 27.5765V27.6065Z" fill="#89C400"/>
</svg>
