<svg width="42" height="35" viewBox="0 0 42 35" fill="none" xmlns="http://www.w3.org/2000/svg">
<path d="M28.1192 24.1111L21.0071 16.999L13.895 24.1111" stroke="#7A7786" stroke-width="2" stroke-linecap="round" stroke-linejoin="round"/>
<path d="M21.0083 16.999V33.0012" stroke="#7A7786" stroke-width="2" stroke-linecap="round" stroke-linejoin="round"/>
<path d="M35.9252 28.3584C37.6594 27.413 39.0294 25.917 39.8189 24.1065C40.6084 22.296 40.7725 20.2741 40.2853 18.36C39.7981 16.4459 38.6874 14.7486 37.1284 13.5358C35.5694 12.3231 33.6509 11.6641 31.6758 11.6628H29.4355C28.8973 9.58114 27.8942 7.6486 26.5016 6.01044C25.1091 4.37227 23.3632 3.07112 21.3954 2.20479C19.4276 1.33846 17.289 0.929505 15.1404 1.00867C12.9918 1.08783 10.8891 1.65306 8.99032 2.66184C7.09159 3.67063 5.44625 5.09673 4.17801 6.83293C2.90977 8.56913 2.05162 10.5702 1.66808 12.6858C1.28454 14.8014 1.3856 16.9764 1.96365 19.0474C2.5417 21.1183 3.5817 23.0312 5.00546 24.6423" stroke="#7A7786" stroke-width="2" stroke-linecap="round" stroke-linejoin="round"/>
<path d="M28.1192 24.1111L21.0071 16.999L13.895 24.1111" stroke="#7A7786" stroke-width="2" stroke-linecap="round" stroke-linejoin="round"/>
</svg>
